<svg
   width="57.539673mm"
   height="55.176224mm"
   viewBox="0 0 57.539673 55.176224"
   version="1.1"
   id="svg5"
   inkscape:version="1.1.2 (0a00cf5339, 2022-02-04, custom)"
   sodipodi:docname="RockPaperScissors.svg"
   xmlns:inkscape="http://www.inkscape.org/namespaces/inkscape"
   xmlns:sodipodi="http://sodipodi.sourceforge.net/DTD/sodipodi-0.dtd"
   xmlns:xlink="http://www.w3.org/1999/xlink"
   xmlns="http://www.w3.org/2000/svg"
   xmlns:svg="http://www.w3.org/2000/svg">
  <sodipodi:namedview
     id="namedview7"
     pagecolor="#505050"
     bordercolor="#ffffff"
     borderopacity="1"
     inkscape:pageshadow="0"
     inkscape:pageopacity="0"
     inkscape:pagecheckerboard="1"
     inkscape:document-units="mm"
     showgrid="false"
     inkscape:zoom="0.77771465"
     inkscape:cx="73.934573"
     inkscape:cy="117.0095"
     inkscape:window-width="2560"
     inkscape:window-height="1369"
     inkscape:window-x="-8"
     inkscape:window-y="-8"
     inkscape:window-maximized="1"
     inkscape:current-layer="layer1" />
  <defs
     id="defs2">
    <linearGradient
       id="a"
       x1="0.5"
       x2="0.5"
       y1="0"
       y2="1">
      <stop
         offset="0%"
         stop-color="#FFF"
         stop-opacity=".097"
         id="stop9" />
      <stop
         offset="100%"
         stop-color="#FFF"
         stop-opacity="0"
         id="stop11" />
    </linearGradient>
    <linearGradient
       inkscape:collect="always"
       xlink:href="#a"
       id="linearGradient136"
       x1="52.785469"
       y1="0"
       x2="52.785469"
       y2="105.57094"
       gradientTransform="matrix(0.26660599,0,0,0.26257601,8.0055885,4.304429)"
       gradientUnits="userSpaceOnUse" />
    <linearGradient
       inkscape:collect="always"
       xlink:href="#a"
       id="linearGradient138"
       x1="53.031509"
       y1="0"
       x2="53.031509"
       y2="106.06302"
       gradientTransform="scale(1.0123415,0.98780891)"
       gradientUnits="userSpaceOnUse" />
    <linearGradient
       inkscape:collect="always"
       xlink:href="#a"
       id="linearGradient79"
       gradientUnits="userSpaceOnUse"
       gradientTransform="scale(1.0123415,0.98780891)"
       x1="53.031509"
       y1="0"
       x2="53.031509"
       y2="106.06302" />
  </defs>
  <g
     inkscape:label="Layer 1"
     inkscape:groupmode="layer"
     id="layer1"
     transform="translate(-85.539443,-117.33973)">
    <g
       inkscape:label="Layer 1"
       id="layer1-5"
       transform="translate(77.533855,113.37897)">
      <ellipse
         cx="22.07851"
         cy="18.807564"
         fill="#b1b4c5"
         rx="14.072923"
         ry="14.503135"
         id="ellipse21"
         style="fill-rule:evenodd;stroke-width:0.264583" />
      <ellipse
         cx="22.07851"
         cy="18.164627"
         fill="url(#a)"
         rx="14.072923"
         ry="13.860197"
         id="ellipse23"
         style="fill:url(#linearGradient136);fill-rule:evenodd;stroke-width:0.264583" />
      <g
         transform="matrix(0.26458333,0,0,0.26458333,9.0637045,9.1217463)"
         id="g29"
         style="fill:none;fill-rule:evenodd">
        <ellipse
           cx="49.189823"
           cy="35.257816"
           fill="#e1e4ed"
           rx="40.832001"
           ry="41.043999"
           id="ellipse25" />
        <path
           fill="#8a90ac"
           fill-rule="nonzero"
           d="m 65.054821,24.630816 a 2.125,2.125 0 0 0 -0.904,-0.146 c -0.417,0.03 -0.755,0.201 -0.955,0.481 -1.177,1.666 -2.141,4.81 -2.919,7.337 -0.357,1.169 -0.836,2.733 -1.183,3.475 -0.362,-2.08 0.047,-9.697 0.206,-12.63 l 0.002,-0.047 c 0.11,-2.038 0.125,-2.396 0.1,-2.553 -0.174,-1.118 -0.618,-1.852 -1.319,-2.18 -0.708,-0.333 -1.629,-0.186 -2.62,0.417 -0.497,0.303 -0.635,1.345 -1.061,6.067 l -0.002,0.02 c -0.235,2.595 -0.776,8.568 -1.441,9.563 -0.75,-1.392 -1.784,-9.3 -2.23,-12.722 -0.312,-2.397 -0.494,-3.774 -0.616,-4.19 -0.257,-0.87 -1.343,-1.611 -2.418,-1.653 -0.895,-0.044 -1.629,0.415 -1.98,1.214 -0.655,0.736 -0.423,3.179 0.302,8.964 0.344,2.754 1.056,8.441 0.608,9.08 -0.893,-0.099 -2.427,-3.661 -4.559,-10.592 -0.598,-1.942 -0.783,-2.525 -0.967,-2.78 -0.362,-0.891 -1.593,-1.578 -2.696,-1.5 a 2.314,2.314 0 0 0 -0.277,0.036 c -0.578,0.116 -1.896,0.653 -1.615,3.13 0.779,3.435 1.624,5.957 2.445,8.405 l 0.016,0.05 c 0.491,1.465 0.955,2.85 1.387,4.388 1.016,3.63 0.621,5.882 0.616,5.907 -0.034,0.232 -0.105,0.374 -0.211,0.423 a 0.405,0.405 0 0 1 -0.143,0.033 c -0.322,0.023 -0.805,-0.193 -1.055,-0.333 -0.568,-1.098 -3.4,-6.33 -5.967,-7.055 l -0.091,-0.026 -0.093,0.008 c -0.942,0.09 -1.634,0.45 -2.057,1.068 -0.67,0.978 -0.393,2.224 -0.325,2.474 l 0.038,0.09 c 0.02,0.037 2.079,3.825 2.397,5.587 0.275,1.511 1.696,3.148 2.838,4.464 l 0.047,0.054 c 0.373,0.43 0.695,0.802 0.948,1.146 3.316,3.492 8.558,6.428 8.601,6.452 0.654,0.487 1.018,0.958 1.056,1.363 a 0.595,0.595 0 0 1 -0.117,0.43 l -0.114,0.12 0.725,0.711 13.832,-0.98 0.59,-2.73 c 1.823,-7.705 1.442,-14.275 1.436,-14.319 0.007,-0.242 0.518,-2.58 0.93,-4.468 l 0.011,-0.048 c 0.82,-3.763 1.838,-8.444 2.034,-10.225 0.085,-0.761 -0.398,-1.46 -1.23,-1.779 z"
           id="path27" />
      </g>
      <g
         transform="matrix(0.26458333,0,0,0.26458333,37.136417,3.9607585)"
         id="g41"
         style="fill:none;fill-rule:evenodd">
        <ellipse
           cx="53.686001"
           cy="54.814999"
           fill="#b1b4c5"
           rx="53.686001"
           ry="54.814999"
           id="ellipse31" />
        <ellipse
           cx="53.686001"
           cy="52.384998"
           fill="url(#b)"
           rx="53.686001"
           ry="52.384998"
           id="ellipse33"
           style="fill:url(#linearGradient79)" />
        <g
           transform="translate(12.473,12.421)"
           id="g39">
          <ellipse
             cx="41.214001"
             cy="41.043999"
             fill="#e1e4ed"
             rx="41.214001"
             ry="41.043999"
             id="ellipse35" />
          <path
             fill="#8a90ac"
             fill-rule="nonzero"
             d="m 30.455,40.692 4.451,-6.234 c -1.85,-0.307 -5.248,-0.375 -8.031,2.397 -4.388,4.37 -6.165,13.809 -6.535,16.093 l 11.15,11.105 c 2.008,-0.17 10.896,-1.353 19.46,-9.881 0.09,-0.184 2.177,-1.72 0.471,-3.418 -0.814,-0.81 -2.162,-0.796 -2.993,0.033 a 1.051,1.051 0 0 1 -1.497,0.015 1.04,1.04 0 0 1 0.015,-1.49 l 3.026,-3.014 c 1.538,-1.532 0.089,-4.116 -2.058,-3.495 l -2.477,2.112 A 1.065,1.065 0 0 1 43.94,44.812 c -0.384,-0.443 -0.302,-1.114 0.135,-1.492 8.654,-7.562 7.39,-6.65 12.958,-11.848 2.08,-1.725 -0.536,-4.776 -2.586,-3.03 L 40.978,40.506 A 1.051,1.051 0 0 1 39.6,40.491 c -0.445,-0.383 -0.455,-0.934 -0.164,-1.37 l 9.395,-14.545 c 1.373,-1.852 -1.33,-3.91 -2.776,-2.042 L 32.164,41.881 a 1.05,1.05 0 0 1 -1.47,0.255 1.02,1.02 0 0 1 -0.24,-1.444 z"
             id="path37" />
        </g>
      </g>
      <g
         transform="matrix(0.26458333,0,0,0.26458333,22.804396,30.130714)"
         id="g53"
         style="fill:none;fill-rule:evenodd">
        <ellipse
           cx="53.686001"
           cy="54.814999"
           fill="#b1b4c5"
           rx="53.686001"
           ry="54.814999"
           id="ellipse43" />
        <ellipse
           cx="53.686001"
           cy="52.384998"
           fill="url(#b)"
           rx="53.686001"
           ry="52.384998"
           id="ellipse45"
           style="fill:url(#linearGradient138)" />
        <g
           transform="translate(12.473,12.421)"
           id="g51">
          <ellipse
             cx="41.214001"
             cy="41.043999"
             fill="#e1e4ed"
             rx="41.214001"
             ry="41.043999"
             id="ellipse47" />
          <path
             fill="#8a90ac"
             fill-rule="nonzero"
             d="m 57.179,35.15 c -0.475,-5.997 -7.208,-5.385 -7.208,-5.385 -2.842,-5.01 -7.281,-1.381 -7.281,-1.381 -3.41,-4.911 -7.687,-0.36 -7.687,-0.36 -7.373,-0.796 -7.087,5.234 -7.087,5.234 -0.173,1.917 1.04,7.847 1.04,7.847 -1.094,-3.418 -3.467,-0.581 -3.467,-0.581 -2.917,4.502 -0.721,6.967 -0.721,6.967 3.947,4.626 12.357,10.18 12.357,10.18 3.046,1.745 1.757,3.3 1.757,3.3 l 18.42,-3.044 0.424,-3.494 c 2.8,-8.472 -0.547,-19.284 -0.547,-19.284 z"
             id="path49" />
        </g>
      </g>
      <path
         id="text57"
         d="m 52.756985,11.501623 c -0.09754,0.08611 -0.202949,0.173559 -0.312643,0.262 0.0579,0.05756 0.114554,0.120589 0.1695,0.190169 0.136398,0.0049 0.27001,0.03072 0.401008,0.0801 0.146677,0.05374 0.270269,0.120922 0.371039,0.201538 h 0.06925 v -0.576193 c -0.117565,-0.04814 -0.257349,-0.08802 -0.418581,-0.119372 -0.09238,-0.01873 -0.18569,-0.03032 -0.279569,-0.03824 z m -5.877677,0.854729 -0.103351,0.279569 c 0.144438,0.09879 0.30177,0.183179 0.465087,0.259932 -0.116806,-0.183101 -0.23568,-0.364297 -0.361736,-0.539501 z m 6.104538,0.21549 c 0.14995,0.325666 0.277218,0.716982 0.372587,1.177706 0.130955,-0.137482 0.197403,-0.303278 0.197403,-0.498161 0,-0.172427 -0.04565,-0.312125 -0.137459,-0.419612 -0.09069,-0.108607 -0.231767,-0.194648 -0.423231,-0.257349 -0.0032,-0.001 -0.0061,-0.0016 -0.0093,-0.0026 z m -6.228045,0.118856 -0.01601,0.04341 c 0.0054,0.02198 0.01336,0.04989 0.01757,0.06925 0.01519,0.0079 0.0303,0.01589 0.04548,0.02377 -0.01873,-0.04396 -0.03352,-0.0898 -0.04703,-0.136426 z m -0.351399,1.034046 c -0.01035,1.53e-4 -0.02066,3.96e-4 -0.03101,5.29e-4 l -0.02429,0.06615 c 0.08606,-0.01398 0.172262,-0.02377 0.2589,-0.02377 0.126453,0 0.252569,0.0157 0.377238,0.04548 l 0.02842,-0.08372 c -0.228234,-0.0035 -0.303101,-0.0043 -0.609264,-0.0047 z m -0.408244,0.0062 c -0.01894,5.03e-4 -0.0379,3.71e-4 -0.05684,0.001 -1.079828,0.03842 0.481047,0.01956 -1.138433,0.04651 -0.204412,0.0034 -0.408927,0.0014 -0.613399,10e-4 v 0.257865 h 1.516186 c 0.09491,-0.05998 0.192649,-0.109939 0.292489,-0.149861 z m 2.102197,0.06356 0.0832,0.242879 h 0.666625 l -0.04754,-0.128675 c -0.07516,-0.0176 -0.150304,-0.03503 -0.225308,-0.05323 -0.0074,0.09378 -0.213199,0.04848 -0.476975,-0.06098 z"
         style="fill:none;fill-rule:evenodd;stroke-width:0.264583" />
      <path
         id="text61"
         d="m 16.696655,42.228431 v 2.500622 h 1.091923 c 0.181384,0 0.330471,-0.01566 0.448035,-0.04703 0.118683,-0.03135 0.227548,-0.08371 0.326078,-0.157612 0.08509,-0.0627 0.151843,-0.142024 0.199988,-0.237194 0.04927,-0.09517 0.0739,-0.203089 0.0739,-0.324012 0,-0.16683 -0.0484,-0.301188 -0.144694,-0.403076 -0.09517,-0.101889 -0.224621,-0.169069 -0.38809,-0.201539 v -0.01344 c 0.116444,-0.0515 0.206964,-0.123163 0.270785,-0.214974 0.06382,-0.09293 0.0956,-0.199988 0.0956,-0.32091 0,-0.104129 -0.02377,-0.196371 -0.0708,-0.276987 -0.04591,-0.08173 -0.116186,-0.146674 -0.211356,-0.194821 -0.09181,-0.0459 -0.185002,-0.07545 -0.279053,-0.08888 -0.09293,-0.01344 -0.239779,-0.02016 -0.441317,-0.02016 z m 2.619995,0 v 2.500622 h 1.024227 c 0.0021,-0.171186 0.07331,-0.341101 0.211874,-0.483693 h -0.59428 v -0.618051 h 1.083139 v -0.48369 h -1.083139 v -0.431498 h 1.166854 v -0.48369 z m 2.994649,0 -0.612882,1.658294 h 1.967838 l -0.612882,-1.658294 z m 1.775086,0 v 0.48369 h 0.780831 v 1.071769 c 0.03565,-0.01045 0.102901,-0.02358 0.229443,-0.04186 0.07306,-0.01056 0.146214,-0.01863 0.219625,-0.02585 0.04469,-0.136493 0.101203,-0.27368 0.174149,-0.410827 0.0072,-0.01347 0.01449,-0.02686 0.0217,-0.04031 V 42.71211 h 0.291455 c 0.0024,-0.0048 0.0049,-0.0096 0.0072,-0.01447 0.07611,-0.155483 0.148646,-0.313095 0.223759,-0.46922 z M 17.338476,42.6868 h 0.06046 c 0.126521,0 0.224103,0.0013 0.293522,0.0036 0.07054,0.0011 0.129708,0.0105 0.176733,0.02842 0.05262,0.02016 0.08888,0.05108 0.109038,0.0925 0.02127,0.04143 0.03204,0.0826 0.03204,0.124023 0,0.05374 -0.009,0.1012 -0.02687,0.142626 -0.01792,0.04031 -0.05598,0.07347 -0.114205,0.09922 -0.04143,0.01902 -0.09836,0.03023 -0.170015,0.03359 -0.07166,0.0034 -0.158044,0.0052 -0.259933,0.0052 h -0.100769 z m 5.335592,0.181383 0.307475,0.897104 h -0.61495 z m -5.335592,0.779282 h 0.141077 c 0.09629,0 0.188533,5.29e-4 0.276986,0.0016 0.08845,0.0011 0.157871,0.0092 0.208256,0.02376 0.0739,0.02127 0.125832,0.05349 0.156062,0.09715 0.03135,0.04255 0.04703,0.103955 0.04703,0.183451 0,0.06046 -0.013,0.114205 -0.03876,0.161229 -0.02463,0.04591 -0.07028,0.0826 -0.13746,0.110588 -0.06606,0.02799 -0.138148,0.0428 -0.216524,0.04393 -0.07838,0.0011 -0.208256,0.0016 -0.38964,0.0016 h -0.04703 z m 7.52874,0.164846 v 0.03256 c 0.204567,-0.01945 0.07302,-0.02064 0,-0.03256 z"
         style="fill:none;fill-rule:evenodd;stroke-width:0.264583" />
      <g
         fill="#b1b4c5"
         transform="matrix(-0.26458333,0,0,0.26458333,52.625498,16.154107)"
         id="g73"
         style="fill-rule:evenodd">
        <path
           id="path69"
           d="m 147.875,73.5625 c 0.0802,0.312015 0.23967,0.607873 0.48438,0.851562 a 1.833,1.833 0 0 0 0.0176,0 C 148.19251,74.13094 148.0216,73.847763 147.875,73.5625 Z"
           transform="matrix(-1,0,0,1,198.89952,-61.054892)" />
        <path
           id="path71"
           d="m 147.9375,73.675781 c 0.0622,0.162016 0.14843,0.316124 0.25781,0.458985 -0.0926,-0.152997 -0.17618,-0.305424 -0.25781,-0.458985 z m 3.99414,4.279297 0.27734,0.28125 c 0,-0.0306 1e-5,-0.0612 0,-0.0918 -0.0936,-0.06243 -0.18632,-0.126288 -0.27734,-0.189453 z"
           transform="matrix(-1,0,0,1,198.89952,-61.054892)" />
      </g>
      <g
         fill="#b1b4c5"
         transform="matrix(0.15175876,0.21673397,0.21673397,-0.15175876,25.762801,35.302008)"
         id="g81"
         style="fill-rule:evenodd">
        <path
           id="rect75"
           d="m 5.3859485,14.000959 c -0.00339,-0.02228 -0.00718,-0.04478 -0.0107,-0.06636 0.00877,0.0073 0.017648,0.01474 0.027234,0.02146 0.00112,0.01973 -9.957e-4,0.02682 -6.166e-4,0.0434 z" />
        <path
           id="path77"
           transform="matrix(0.57357645,0.81915205,0.81915205,-0.57357645,-173.30751,6.407151)"
           d="m 124.4707,179.58594 c -0.0224,0.0118 -0.0452,0.024 -0.0664,0.0352 l 0.0605,0.01 c 0.002,-0.0163 0.004,-0.029 0.006,-0.0449 z" />
      </g>
      <g
         fill="#b1b4c5"
         transform="matrix(0.15175876,-0.21673398,0.21673398,0.15175876,46.420301,28.123924)"
         id="g89"
         style="fill-rule:evenodd">
        <path
           id="rect83"
           transform="rotate(55,272.15529,-113.65784)"
           d="m 218.42383,180.75391 c 0.005,0.009 0.01,0.0184 0.0156,0.0273 0,0 0.002,0 0.002,0 0.0207,5.8e-4 0.0239,-0.005 -0.002,-0.0195 -0.005,-0.003 -0.0105,-0.005 -0.0156,-0.008 z m 1.12695,0.0332 c 0.0477,0.0677 0.0961,0.13107 0.14258,0.18945 -0.0131,-0.0573 -0.024,-0.11425 -0.0352,-0.17187 -0.0113,-0.003 -0.0225,-0.007 -0.0332,-0.0117 -0.0248,-0.002 -0.0495,-0.004 -0.0742,-0.006 z" />
      </g>
    </g>
  </g>
</svg>
